<svg width="217" height="117" viewBox="0 0 217 117" fill="none" xmlns="http://www.w3.org/2000/svg">
<path d="M153.943 3.42242C211.325 -14.3244 178.22 41.7715 193.913 61.2007C210.534 81.7791 213.7 103.149 170.96 103.149C129.733 103.149 42.3442 110.272 24.5358 103.149C6.72752 96.0258 21.7657 63.5751 21.3699 54.0773C21.0533 46.4791 18.072 38.6434 16.6209 37.0605C6.33171 4.21399 51.8418 1.28562 68.067 7.77565C84.2922 14.2657 115.556 15.2945 153.943 3.42242Z" fill="#A5E4FF"/>
<path d="M161.645 69.5107C153.121 69.5107 132.117 89.5616 122.68 99.587H201.828C191.985 89.5616 170.169 69.5107 161.645 69.5107Z" fill="#34C759"/>
<path d="M80.5114 63.9707C66.3621 63.9707 31.4943 88.2428 15.8291 100.379H147.215C130.876 88.2428 94.6606 63.9707 80.5114 63.9707Z" fill="#43DC6A"/>
<path d="M4.26149 106.867C-8.12856 101.701 9.42401 99.3331 19.749 98.7949H206.822C223.451 98.7949 215.789 116.832 198.671 114.132C183.319 111.71 161.664 108.32 126.124 114.132C81.6993 121.396 19.749 113.324 4.26149 106.867Z" fill="#54F17C"/>
<circle cx="122.284" cy="39.0398" r="16.2254" fill="#FFF06E"/>
</svg>
